<?xml version="1.0" encoding="UTF-8"?>
<svg id="_レイヤー_1" data-name="レイヤー 1" xmlns="http://www.w3.org/2000/svg" viewBox="0 0 1024 1024">
  <defs>
    <style>
      .cls-1 {
        fill: none;
        stroke: #000;
        stroke-linecap: round;
        stroke-linejoin: round;
        stroke-width: 17px;
      }
    </style>
  </defs>
  <g>
    <path class="cls-1" d="M738.25,766.27c-15.41-.31-30.01,3.98-44.79,7.54-21.09,5.07-42.12,4.43-62.85-2.29-16.25-5.27-32.77-8.94-50.01-8.11-14.21.69-27.92,3.66-41.48,7.98-9.68,3.08-19.68,4.75-29.95,5.58-16.12,1.3-31.57-1.25-46.66-6.06-16.82-5.36-33.85-8.6-51.48-7.4-12.2.83-24.11,3.55-35.74,7.5-17.37,5.89-35.14,6.87-53.35,4.96-10.95-1.15-21.22-4.79-31.85-7.05-7.35-1.57-14.64-1.35-21.96-1.92"/>
    <path class="cls-1" d="M739.21,719.11c-15.57.6-30.76,3.42-45.73,7.62-11.08,3.11-22.45,4.08-33.81,3.21-13.65-1.05-26.99-4.32-39.99-8.53-15.14-4.91-30.67-5.46-46.22-4.51-12.67.77-25.05,4.12-37.14,7.99-13.7,4.39-27.73,6.02-41.93,5.03-11.51-.8-22.84-3.29-33.83-7.01-17.34-5.87-35.27-7.23-53.34-6.07-12.9.83-25.29,4.81-37.62,8.5-12.95,3.87-26.14,5.43-39.55,4.61-7.85-.48-15.78-1.44-23.32-3.79-12.61-3.94-25.41-6.23-38.61-6.35"/>
    <path class="cls-1" d="M535.82,368.54c6.55,4.13,11.51,9.83,15.69,16.21,6.43,9.8,14.44,17.88,24.27,24.35,7.02,4.62,10.61,11.77,11.92,19.94,1.62,10.07,3.93,20.03,8.73,28.99,7.72,14.42,11.56,29.88,14.16,45.79,3.49,21.32,10.25,41.44,21.37,60.06,1.3,2.18,2.9,1.01,4.36,1.38"/>
    <path class="cls-1" d="M329.57,549.06c2.65.28,4.92,1.46,7.16,2.83,4.55,2.78,8.68,2.89,11.78-1.02,7.73-9.73,17.17-17.45,26.69-25.27,11.18-9.19,14.67-22.09,14.86-36.09.12-8.45,1.66-16.71,5.34-24.24,5.55-11.36,7.55-23.38,8.53-35.77.63-8.02,1.85-15.75,6.42-22.99,4.64-7.36,8.47-15.37,13.28-22.59,4.69-7.05,11.2-12.63,19.25-16.47,12.47-5.95,25.1-11.21,38.64-14.18,5.43-1.19,10.74-1.78,16.22-.03,5.54,1.77,9.19-2.36,12.74-5.31,4.33-3.59,8.85-6.44,14.4-6.95,6.37-.58,12.76-.98,19.07,1.29,10.11,3.65,20.38,7.51,28.37,14.56,9.17,8.09,21.38,14.23,23.87,27.91,1.31,7.2,4.86,12.07,9.73,17.49,5.17,5.74,8.66,13.56,10.99,21.51,2.71,9.24,3.72,19.15,9.87,27.2,4.28,5.6,8.36,11.36,12.44,17.11,7.33,10.31,11.28,21.46,11.04,34.32-.27,14.71.69,29.35,4.04,43.85,3.77,16.34,11.39,30.15,25.01,39.83,10.1,7.17,18.91,15.84,28.95,23.01,1.68,1.2,3.5,2.21,5.21,3.37,3.56,2.42,7.1,2.74,10.46-.08,1.66-1.39,3.39-1.43,5.28-1.38.79.02,1.61.12,2.38-.01,12.36-2.15,24.77.13,37.16-.35,12.37-.48,24.76-.1,37.15-.1s24.77-.05,37.15.05c2.21.02,4.43.55,6.67.43"/>
    <path class="cls-1" d="M516.05,376.64c.78,8.9,1.62,17.78-2.6,26.21-2.39,4.77-6.11,8.31-10.54,10.88-10.81,6.26-15.7,16.53-18.93,27.72-4.69,16.24-15.08,27.41-29.62,35.22-5.67,3.04-11.65,5.56-15.75,10.94-3.48,4.56-4.28,10.13-6.11,15.29-6,16.96-16.18,31.11-29.18,43.25-5.26,4.91-10.12,10.21-15.52,14.98-1.61,1.43-2.85,2.35-4.88,2.24"/>
    <path class="cls-1" d="M539.63,431.89c-5.21,13.84-10.53,27.68-9.49,42.87.56,8.09.08,16.25,1.4,24.29.66,4.03,2.18,7.32,5.62,10.11,7.27,5.89,14.21,12.3,17.67,21.34,5.42,14.19,11.09,28.28,16.56,42.44,1.81,4.69,1.3,10.19-1.37,14.65-4.12,6.88-2.6,13.51.19,20.02,1.94,4.51,4.1,8.78,2.76,13.85"/>
    <path class="cls-1" d="M495.33,474.76c.1,3.47-1.98,6.01-3.84,8.56-6.63,9.11-9.54,19.36-10.61,30.49-.58,6.08-1.64,12.16-3.44,18.18-2.23,7.48-6.25,13.39-13.15,15.95-15.41,5.71-22.22,18.33-28.05,32.09-.16.38-.62.64-.93.96"/>
    <path class="cls-1" d="M240.02,623.61c4.87.77,9.85.43,14.36,3.47,4.83,3.25,10.77,1.6,16.13,1.85,28.88,1.38,57.79.52,86.68.53,7.3,0,14.6-.58,21.91.08,1.64.15,3.25.13,4.77.97,4.36,2.41,8.46,1.29,12.91-.31,3.86-1.38,8.09-1.62,12.36-.26,3.52,1.12,7.28,1.15,10.93-.34,7.97-3.26,15.84-2.51,23.3,1.46,5.14,2.73,10.46,3.86,16.23,3.79,12.23-.16,24.47.33,36.67-.57,5.51-.41,9.76,4.13,15.25,3.39,1.5,4.52,7.23,6.5,6.78,12.39-.45,5.95,2.09,6.55,7.03,6.23,1.3-.08,2.64-.1,3.79-.56,6.1-2.44,11.84-2.38,17.18,1.93,2.06,1.66,4.51,2.09,7.13,1.93,7.29-.43,14.21.4,21.04,3.61,4.46,2.1,9.81.74,14.66.07,3.67-.51,7.29-.82,10.97-.83"/>
    <path class="cls-1" d="M719.68,615.27c.47,2.54,2.42,4.35,3.33,6.67,1.83,4.66-.25,8.26-5.24,9.02-1.09.17-2.22.02-3.33.02-29.85,0-59.7-.3-89.55.08-32.23.41-64.46.26-96.69.45-6.04.04-12.02.89-16.2,6.14"/>
    <path class="cls-1" d="M491.52,377.83c-12.56,8.77-26.01,16.08-39.06,24.05-12.84,7.84-18.42,19.63-19.1,34.3-.3,6.37-1.66,12.66-1.85,19.06"/>
    <path class="cls-1" d="M249.55,623.85c-.18-1.01.53-1.82.55-2.86.02-2.06,1.99-4.32.32-6.12-2.04-2.19-4.87-3.33-8.01-3.42-21.91-.61-43.83-.74-65.73-.3-7.01.14-13.98-.53-20.96-.17"/>
    <path class="cls-1" d="M743.02,640.52h67.16"/>
    <path class="cls-1" d="M501.52,550.02c.49,4.38-1.74,8.24-2.32,12.39-.78,5.52-1.44,10.99-.19,16.69,1.45,6.59-1.16,11.78-6.92,15.82-3.92,2.75-8.15,5.69-9.62,10.83"/>
    <path class="cls-1" d="M485.8,655.76c-13.75,2.21-27.66-.03-41.45,1.38-.71.07-1.21.58-1.9.53"/>
    <path class="cls-1" d="M413.4,297.09c6.77,7.97,13.58,15.91,21.42,22.87,1.34,1.19,2.63,2.46,3.81,3.81,3.16,3.64,4.11,7.76,2.4,12.37"/>
    <path class="cls-1" d="M607.74,590.03c2.54,7.9,6.7,15.14,8.76,23.29,1.41,5.58,2.24,11.04,2.19,16.72"/>
    <path class="cls-1" d="M649.18,387.59c.94,2.7,1.73,5.42,3.76,7.67,1.5,1.67.81,3.98-.08,5.6-.65,1.17-2.33,1.3-4.16,1.22-4.82-.21-9.28-3.4-14.29-1.66-.6.21-1.14.82-1.89.51"/>
    <path class="cls-1" d="M329.81,543.35c.68,2.8-.65,4.82-2.03,7.21-4.77,8.24-9.53,16.38-16.73,22.85-2.69,2.42-5.47,4.09-9.1,4.23"/>
    <path class="cls-1" d="M570.11,269.94c3.16.31,5.86-1.02,8.58-2.37,5.49-2.73,6.6-2.19,9.13,3.29.83,1.79,1.74,4.78,4.64,3.74,2.56-.92,6.5.39,7.28-4.16.35-2.08,2.3-3.8,1.81-6.21"/>
    <path class="cls-1" d="M694.91,596.22c4.58-5.35,11.48-6.92,17.22-10.36,3.64-2.18,7.28-.38,8.87,4.2,1.63,4.71,4.94,7.57,9.2,8.87,5.11,1.56,7.9,4.33,8.05,9.67"/>
    <path class="cls-1" d="M652.52,352.34c3.69,2.73,8.25,2.26,12.39,3.31,5.82,1.48,8.9,5.63,7.06,9.99-.74,1.75-1.4,3.58-2.33,5.25-1.98.32-3.79-.61-5.68-.96-4.74-.86-6.8.42-6.56,5.26.25,5.14-5.1,10.65-10.11,11.91"/>
    <path class="cls-1" d="M504.86,257.79c8.8,3.34,17.58,6.67,24.8,13.07,2.08,1.84,4.29,3.64,7.12,4.31,3.44.82,4.08,3.34,3.27,6.18-1.28,4.54-.14,9.4-2.22,13.88-.9,1.95,1.28,3.94,1.36,6.14.2,5.4,1.27,11.24.43,16.11-1.31,7.65.48,15.03-.47,22.47"/>
    <path class="cls-1" d="M413.88,295.18c4.37-4.56,7.86-9.77,10.93-15.26.58-1.04,1.18-1.67,2.4-1.92,5.99-1.2,11.31-3.55,15.8-7.99,3.27-3.23,6.95-1.76,8.53,2.77.51,1.47.35,3.72,1.91,4.2,5.12,1.57,5.96,6.09,7.58,10.1,1.44,3.57,3.74,5.04,7.64,3.84,4.66-1.43,7.79,0,10.12,4.67,2.81,5.65,7.59,10.27,8.92,16.73.53,2.57,2.54.98,3.82,1.43"/>
    <path class="cls-1" d="M652.04,666.24c7.94.26,15.89-.54,23.82.45,1.82.23,3.6-.29,5.24-1.16"/>
    <path class="cls-1" d="M619.17,328.05c-9.59.79-18.93,3.51-28.58,3.78-1.86.05-2.76,1.27-3.81,2.41-3.25,3.57-4.68,8.15-6.59,12.42-1.36,3.03-2.92,5.79-5.32,8.06"/>
    <path class="cls-1" d="M606.79,303.28c-5.95,6.11-10.4,13.4-15.63,20.07-1.69,2.16-2.08,5.15-1.51,8.03"/>
    <path class="cls-1" d="M411.97,297.57c-2.86,2.86-6.31,5.34-8.44,8.66-3.31,5.16-8.3,7.34-13.49,9.4-4.56,1.81-6.01,4.97-4.82,9.58,1.67,6.5,5.53,12.28,6.21,19.04.43,4.27,3.26,5.96,6.74,6.55,2.35.4,4.39,3.4,7.12,1.07"/>
    <path class="cls-1" d="M542.01,225.16c-.95,8.89-.21,17.96-2.86,26.67"/>
    <path class="cls-1" d="M629.18,290.9c-5.75,3.01-6.15,9.85-.98,13.85,3.45,2.67,7.55,3.69,11.47,5.17,3.12,1.18,3.87-2.64,6.18-3.3"/>
    <path class="cls-1" d="M837.33,676.24c-8.58.05-17.16-.18-25.72.48"/>
    <path class="cls-1" d="M637.75,411.41c-2.67-2.67-4.53-5.57-5.4-9.49-1.16-5.19-10.09-8.45-15.54-6.21-3.56,1.47-6.83,3.52-10.01,5.69"/>
    <path class="cls-1" d="M399.11,369.01c0-1.43-.34-2.96.07-4.27.93-3.02,5.91-3.2,9.47-.51,1.16.88,2,2.12,2.31,3.36,1.64,6.58,6.26,10.65,11.5,14.27"/>
    <path class="cls-1" d="M420.07,331.62c2.51-1.01,4.92.09,7.11.82,4.4,1.47,8.5,3.56,13.36,3.92,2.17.16,3.44,3.35,5.25,5.03,5.48,5.1,10.1,10.8,12.39,18.09"/>
    <path class="cls-1" d="M503.9,310.9c-.04-1.76.52-3.8-.54-5.19-2.67-3.49-2.08-7.03-1.48-11.03,1.38-9.18,8.92-12.76,16.8-7.61,5.63,3.68,11.44,7.02,18.09,8.59"/>
    <path class="cls-1" d="M287.65,577.17c1,6.69-3.28,11.48-6.28,16.62-1.51,2.59-4.61,3.28-7.53,3.35-3.49.09-5.92,1.44-8.19,4.25-4.03,4.97-7.19,10.97-13.72,13.4-.28.1-.63.01-.95.01"/>
    <path class="cls-1" d="M574.64,284.23c.43,4.97-3.11,8.4-5.15,12.3-1.67,3.2-4.14,6-5.07,9.61-.4,1.57-1.43,2.23-2.85,2.91-6.87,3.31-12.83,8.68-20.98,9"/>
    <path class="cls-1" d="M566.3,276.13c-.22-2.68,3.16-3.26,3.33-5.71.21-2.29-1.85-3.34-2.98-4.66-1.77-2.07-4.46-2.51-6.52-.07-3,3.55-6.24,6.81-10.04,9.49-2.85,2.01-5.91,3.49-9.52,3.34"/>
    <path class="cls-1" d="M522.48,240.41c6.11,2.81,9.81,9,16.17,11.49.73.29,1.7,1.05,1.46,2.32-1.3,6.92,2.02,14.27-1.91,20.96"/>
    <path class="cls-1" d="M411.5,296.14c-4.25-5.49-10.4-6.22-16.67-6.67"/>
    <path class="cls-1" d="M561.06,242.31c-4.85,1.59-8.56,4.93-12.4,8.08-2.33,1.91-4.85,3.55-8.08,3.35"/>
    <path class="cls-1" d="M602.03,288.99c1.8.22,3.24-.86,4.73-1.5,2.14-.92,4.01-1.13,5.73.57.96.95,2.22,1.69,3.33,1.34,4.08-1.31,7.4.94,10.98,1.98"/>
    <path class="cls-1" d="M600.12,272.32c5.19,2.97,11.31.88,16.75,3.14,1.72.72,3.93-2,6.12-2.63,1.94-.55,3.54-2.09,5.71-1.94"/>
    <path class="cls-1" d="M646.8,352.82c2.83.11,5.46.34,5.85-3.8.17-1.78,2.38-2.89,3.67-4.3,3.61-3.93,3.25-6.63-1.45-8.52-4.11-1.65-9.04-.38-12.84-3.39-.31.48-1.05.66-.98,1.43.01.14-.36.48-.44.45-.65-.27-.65-.61-.01-.93"/>
    <path class="cls-1" d="M424.83,278.04c-4.94-3.32-10.57-3.34-16.19-3.33"/>
    <path class="cls-1" d="M677.28,373.3c-2.17.38-4.14-.55-6.19-.95"/>
  </g>
  <rect class="cls-1" x="139.25" y="139.25" width="745.5" height="745.5" rx="58.03" ry="58.03"/>
</svg>